<?xml version="1.0" encoding="utf-8"?><svg xmlns="http://www.w3.org/2000/svg" xml:space="preserve" width="500" height="509.2" viewBox="0 0 500 509.2"><path d="M251.2 0c-.1.1-.4.1-.8.1C112.3.1 0 112.4 0 250.5c0 56.3 19.2 111.1 54.4 155.1L18 490.2c-3 7 .3 15 7.1 17.9 2.5 1.1 5.2 1.4 7.8 1l133.6-23.5c26.7 9.7 54.8 14.6 83.2 14.5C387.7 500 500 387.7 500 249.7 500.3 112 388.8.1 251.2 0m-1.4 472.9c-26.3 0-52.4-4.8-77.1-14.1-2.3-1-4.8-1.1-7.2-.7L53.1 477.8l29.7-69.2c2-4.8 1.2-10.4-2.2-14.3-16.1-18.7-28.9-40-37.9-63-10.1-25.8-15.3-53.2-15.3-80.9 0-123.1 100.1-223.1 223.1-223.1 122.6-.3 222.2 98.9 222.4 221.6v.8c0 123.2-100.2 223.2-223.1 223.2"/><path d="M239.2 200.1h-73.7c-7.5 0-13.6 6.1-13.6 13.6s6.1 13.6 13.6 13.6h73.7c7.5 0 13.6-6.1 13.6-13.6s-6.1-13.6-13.6-13.6M334.7 268.3H165.5c-7.5 0-13.6 6.1-13.6 13.6s6.1 13.6 13.6 13.6h169.2c7.5 0 13.6-6.1 13.6-13.6 0-7.4-6.1-13.6-13.6-13.6"/></svg>