<?xml version="1.0" encoding="UTF-8"?><svg xmlns="http://www.w3.org/2000/svg" viewBox="0 0 21 20"><path d="M14.2 20H5.8C4 20 3 20 2.2 19.6s-1.4-1-1.7-1.7C0 17 0 16 0 14.2V5.8C0 4 0 3 .4 2.2S1.4.8 2.1.5C3 0 4 0 5.8 0H14c.6 0 1 .4 1 1s-.4 1-1 1H5.8c-1.5 0-2.3 0-2.7.2-.4.2-.7.5-.9.9S2 4.3 2 5.8v8.4c0 1.5 0 2.3.2 2.7s.5.7.9.9 1.2.2 2.7.2h8.4c1.5 0 2.3 0 2.7-.2s.7-.5.9-.9.2-1.2.2-2.7V10c0-.6.4-1 1-1s1 .4 1 1v4.2c0 1.8 0 2.8-.4 3.6s-1 1.4-1.7 1.7c-.9.5-1.9.5-3.7.5ZM10 13c-.3 0-.5-.1-.7-.3l-3-3c-.4-.4-.4-1 0-1.4.4-.4 1-.4 1.4 0l2.3 2.3 9.3-9.3c.4-.4 1-.4 1.4 0s.4 1 0 1.4l-10 10c-.2.2-.4.3-.7.3Z"/></svg>