<?xml version="1.0" encoding="UTF-8"?><svg xmlns="http://www.w3.org/2000/svg" viewBox="0 0 95 95"><path fill="#000000" style="opacity:0.5;" d="M80.95 13.75c-18.63-18.43-48.77-18.33-67.2.3s-18.33 48.78.3 67.21c18.63 18.43 48.78 18.33 67.21-.3 18.43-18.63 18.33-48.78-.3-67.21ZM70.64 38.39 44.8 64.53c-2.2 2.2-5.81 2.2-8.01 0l-1-1-3-3-8.41-8.31c-2.2-2.2-2.2-5.81 0-8.01s5.81-2.2 8.01 0l8.41 8.31 21.83-22.03c2.2-2.2 5.81-2.2 8.01 0 2.2 2.1 2.2 5.71 0 7.91Z"/><path fill="#ffffff" style="opacity:0.5;" d="M62.62 30.47 40.79 52.5l-8.41-8.31c-2.2-2.2-5.81-2.2-8.01 0s-2.2 5.81 0 8.01l8.41 8.31 3 3 1 1c2.2 2.2 5.81 2.2 8.01 0l25.84-26.14c2.2-2.2 2.2-5.81 0-7.91-2.2-2.2-5.81-2.2-8.01 0Z"/></svg>