<?xml version="1.0" encoding="UTF-8"?><svg xmlns="http://www.w3.org/2000/svg" viewBox="0 0 240.55 237"><path d="m151.52 12.36 4.2 1.3-.39 1.27-5.76-1.78 3.7-11.99 1.57.48-3.31 10.71ZM170.22 8.9l-1.81 3.78 4.12 1.97-.58 1.22-4.12-1.97-1.86 3.9 4.61 2.21-.58 1.22-6.09-2.91 5.42-11.33 6.09 2.91-.58 1.22-4.61-2.21ZM192.06 20.24l-.76 1.1-2.82-1.94-6.36 9.24-1.35-.93 6.36-9.23-2.83-1.95.76-1.1 7 4.82ZM202.48 26.61l-2.56 2.52-.84-.76 2.22-2.82 1.18 1.06ZM201.08 45.1c-.2-.69-.22-1.34-.07-1.97.16-.62.49-1.16 1-1.61l1.13 1.33c-.41.43-.63.93-.66 1.52-.03.58.22 1.19.75 1.81.51.59 1.05.94 1.64 1.03.59.09 1.12-.06 1.58-.46.36-.31.58-.66.63-1.06.06-.4.02-.8-.12-1.2s-.36-.92-.65-1.55c-.37-.77-.64-1.42-.8-1.93s-.18-1.06-.05-1.63.48-1.11 1.07-1.61c.52-.44 1.1-.7 1.72-.78.63-.08 1.26.03 1.88.32.63.29 1.21.75 1.73 1.37.76.9 1.16 1.82 1.2 2.77.04.95-.28 1.78-.96 2.48l-1.17-1.37c.33-.36.48-.82.48-1.4s-.25-1.14-.73-1.7c-.44-.52-.94-.83-1.49-.93s-1.07.06-1.55.47c-.35.3-.55.63-.6 1.02s-.01.77.12 1.15c.13.38.34.9.64 1.55.36.78.62 1.43.78 1.96.16.53.18 1.08.06 1.65s-.48 1.12-1.08 1.63c-.47.4-1.01.65-1.63.75-.62.1-1.27.02-1.93-.25-.67-.27-1.28-.73-1.84-1.39-.54-.63-.91-1.29-1.11-1.98ZM225.29 73.39c-.12.47-.34.89-.65 1.28-.31.38-.7.68-1.16.89-.58.26-1.17.35-1.77.26-.6-.09-1.16-.35-1.68-.8s-.95-1.05-1.3-1.81l-1.92-4.27 11.45-5.14 1.84 4.11c.35.78.52 1.5.51 2.16-.01.66-.18 1.23-.49 1.7-.32.47-.75.83-1.29 1.07-.68.31-1.32.37-1.93.21-.61-.17-1.15-.51-1.61-1.02.12.45.12.9 0 1.37Zm-4.08.64c.54.26 1.12.25 1.74-.03.63-.28 1.04-.73 1.21-1.33.17-.6.09-1.27-.24-2l-1.16-2.6-4.04 1.81 1.19 2.64c.33.74.77 1.25 1.31 1.51Zm2.78-6.52 1.13 2.51c.31.7.72 1.17 1.22 1.4s1.04.22 1.62-.04c.58-.26.95-.66 1.11-1.19.16-.53.07-1.16-.25-1.88l-1.11-2.48L224 67.5ZM236.14 84.56l-7.7 1.94c-1.08.27-1.82.74-2.21 1.4-.39.66-.47 1.46-.23 2.41.23.93.68 1.59 1.34 1.99.66.4 1.53.46 2.61.19l7.7-1.94.4 1.59-7.68 1.93c-1.01.25-1.92.27-2.71.03-.8-.23-1.45-.65-1.96-1.26s-.88-1.34-1.09-2.2a5.42 5.42 0 0 1-.08-2.46c.16-.78.54-1.45 1.13-2.03.59-.58 1.39-.99 2.41-1.25l7.68-1.93.4 1.59ZM240.01 105.7l-12.48 1.25-.16-1.63 12.48-1.25.16 1.63ZM229.29 118.96l-.12 4.39-1.33-.04.17-6.03 12.54.34-.05 1.64-11.21-.31ZM237.09 142.03a5.29 5.29 0 0 1-2.59 1.84c-1.03.34-2.18.39-3.44.15-1.26-.25-2.3-.72-3.12-1.43s-1.38-1.6-1.68-2.67c-.3-1.08-.31-2.29-.05-3.63l.75-3.83 12.31 2.4-.75 3.83c-.26 1.34-.74 2.46-1.43 3.34Zm-9.01-1.6c.68 1 1.78 1.65 3.3 1.95 1.53.3 2.81.11 3.83-.56s1.69-1.8 2-3.38l.43-2.23-9.68-1.89-.43 2.23c-.31 1.59-.13 2.89.55 3.89ZM216.89 165.11c.56-.44 1.16-.71 1.8-.8.63-.09 1.26.02 1.87.33l-.81 1.55c-.55-.22-1.1-.23-1.65-.04-.55.19-1.02.65-1.4 1.37-.36.69-.47 1.33-.34 1.91.14.58.48 1.01 1.02 1.3.43.22.83.29 1.22.19.39-.1.74-.28 1.06-.56.32-.28.72-.67 1.19-1.19.58-.63 1.07-1.12 1.5-1.46s.92-.56 1.49-.66c.57-.1 1.21.03 1.9.39.61.32 1.06.75 1.37 1.31.31.55.44 1.18.4 1.87-.04.69-.25 1.4-.62 2.12-.54 1.04-1.25 1.76-2.12 2.15s-1.76.4-2.66.04l.83-1.6c.45.17.94.14 1.48-.08.53-.22.96-.66 1.3-1.31.32-.61.42-1.18.31-1.73s-.45-.97-1.01-1.26c-.4-.21-.79-.27-1.17-.18-.37.1-.72.28-1.02.54-.31.27-.71.66-1.19 1.17-.59.63-1.09 1.11-1.53 1.46-.43.34-.93.57-1.51.67-.58.1-1.22-.03-1.92-.39-.54-.28-.98-.69-1.31-1.23s-.49-1.17-.5-1.89c0-.72.2-1.46.6-2.23.38-.73.86-1.32 1.42-1.76ZM207.45 181.31c1.02-.42 2.09-.54 3.2-.38s2.15.63 3.11 1.38 1.66 1.66 2.08 2.7c.42 1.04.55 2.11.39 3.2-.16 1.09-.61 2.1-1.32 3.01-.73.92-1.6 1.6-2.62 2.01-1.02.42-2.09.54-3.19.38-1.11-.17-2.14-.63-3.12-1.4-.97-.76-1.67-1.66-2.09-2.7s-.55-2.1-.39-3.19c.16-1.09.61-2.1 1.34-3.03.72-.92 1.59-1.58 2.61-2Zm-2.48 5.12c-.11.8 0 1.6.35 2.38.35.78.91 1.48 1.69 2.1.79.62 1.61 1.01 2.45 1.15.84.15 1.63.07 2.38-.22.75-.3 1.4-.79 1.95-1.49s.88-1.45.99-2.25 0-1.59-.35-2.37c-.34-.78-.91-1.48-1.7-2.1-.78-.62-1.6-1-2.44-1.15-.84-.15-1.64-.08-2.4.22s-1.4.79-1.94 1.48-.87 1.44-.98 2.24ZM192.68 212.9l-8-9.54 1.25-1.05 5.97 7.12-2.8-9.78.88-.74 9.17 4.46-5.98-7.13 1.25-1.05 8.01 9.54-1.35 1.13-10.15-4.93 3.09 10.85-1.34 1.12ZM180.29 219.46l-2.07-3.65-3.98 2.25-.66-1.18 3.98-2.25-2.13-3.76-4.45 2.52-.66-1.18 5.87-3.32 6.19 10.93-5.87 3.33-.66-1.18 4.45-2.52ZM158.46 230.89l-.47-1.25 3.2-1.2-3.93-10.5 1.53-.58 3.93 10.5 3.22-1.21.47 1.25-7.96 2.98ZM137.83 235.86l-2.34-12.33 1.61-.31 1.06 5.59 6.28-1.19-1.06-5.59 1.61-.3 2.34 12.33-1.61.3-1.03-5.41-6.28 1.19 1.03 5.41-1.61.31ZM124.1 237l-.49-12.54 1.64-.06.49 12.54-1.64.06ZM103.55 223.32l1.63.18 5.45 10.65 1.1-9.93 1.63.18-1.39 12.49-1.63-.18-5.45-10.64-1.1 9.91-1.63-.18 1.39-12.49ZM81.9 226.97c.11.8.43 1.49.94 2.07.51.58 1.18 1 2.02 1.26.84.26 1.65.3 2.44.13s1.49-.56 2.1-1.15 1.06-1.36 1.35-2.3.36-1.82.2-2.65-.52-1.54-1.07-2.14-1.24-1.02-2.08-1.28c-1.17-.36-2.24-.31-3.21.15-.97.46-1.71 1.27-2.21 2.42l4.78 1.49-.4 1.27-6.44-2.01.38-1.2c.4-.96.99-1.76 1.77-2.42s1.68-1.09 2.68-1.29c1.01-.21 2.04-.15 3.09.18 1.11.35 2.04.92 2.8 1.73.75.81 1.25 1.76 1.49 2.85s.18 2.23-.18 3.39c-.36 1.17-.96 2.14-1.78 2.9-.82.77-1.78 1.27-2.86 1.5-1.08.24-2.17.18-3.29-.17-1.27-.4-2.3-1.06-3.08-2-.78-.94-1.22-2.05-1.31-3.33l1.87.59ZM49.82 209.82c-.14.8-.05 1.55.26 2.26.31.71.82 1.31 1.54 1.82.72.5 1.48.8 2.28.87.81.08 1.59-.08 2.35-.46s1.42-.97 1.99-1.78c.57-.8.9-1.62 1-2.47.1-.84-.02-1.63-.36-2.36s-.87-1.35-1.59-1.86c-1-.71-2.04-.99-3.1-.85-1.07.14-2.02.68-2.84 1.63l4.09 2.88-.77 1.09-5.52-3.89.73-1.03c.67-.79 1.48-1.37 2.43-1.76.95-.38 1.93-.52 2.95-.41 1.02.11 1.99.48 2.89 1.12.95.67 1.66 1.51 2.13 2.51.47 1 .65 2.06.55 3.17-.1 1.12-.51 2.17-1.21 3.18-.7 1-1.57 1.74-2.59 2.22s-2.08.66-3.18.56c-1.1-.11-2.12-.5-3.08-1.17-1.09-.77-1.86-1.72-2.32-2.85-.46-1.13-.53-2.32-.22-3.57l1.6 1.13ZM41.31 190.1l-1.6 5.72 1.38 1.42 3.68-3.58 1.14 1.17-9 8.74-2.82-2.9c-.66-.68-1.1-1.37-1.33-2.06-.22-.69-.25-1.35-.08-1.97.17-.62.51-1.17 1.02-1.67.62-.6 1.34-.95 2.16-1.06.82-.1 1.66.13 2.5.69l1.57-5.92 1.37 1.41Zm-1.16 8.05-1.68-1.73c-.62-.64-1.24-.96-1.86-.97s-1.2.24-1.72.75c-.53.52-.79 1.08-.78 1.68.01.6.33 1.22.96 1.86l1.68 1.73 3.41-3.31ZM23.64 186.12l3.44-2.4-2.61-3.75 1.11-.77 2.61 3.75 3.55-2.47-2.92-4.2 1.11-.77 3.86 5.54-10.31 7.18-3.86-5.54 1.11-.77 2.92 4.2ZM19.2 161.48l2.33 4.95 2.95-.28.74 1.56L12 168.93l-.81-1.71 9.36-9.41.74 1.56-2.09 2.1Zm-1.01.99-4.76 4.75 6.7-.65-1.93-4.1ZM3.28 144.85l1.28-.36.92 3.29 10.8-3 .44 1.58-10.8 3 .92 3.31-1.28.36-2.28-8.19ZM.03 112.09h1.33l-.01 3.42 11.21.04v1.64l-11.22-.04v3.44H0l.03-8.5ZM13.11 100.17c-.71.84-1.6 1.45-2.66 1.82s-2.2.44-3.4.22-2.23-.7-3.09-1.43-1.47-1.61-1.83-2.66c-.36-1.04-.43-2.14-.22-3.28.22-1.16.68-2.16 1.39-3 .71-.84 1.6-1.45 2.65-1.81s2.19-.43 3.41-.21c1.22.23 2.25.7 3.1 1.42.85.72 1.46 1.6 1.82 2.65.36 1.04.43 2.14.22 3.3a6.322 6.322 0 0 1-1.39 2.98Zm-.18-5.68c-.27-.76-.74-1.41-1.41-1.95-.67-.53-1.49-.89-2.47-1.07-.99-.18-1.89-.15-2.7.11-.81.26-1.48.69-2.01 1.3-.53.61-.87 1.35-1.04 2.22s-.11 1.69.17 2.45.74 1.4 1.41 1.94c.66.53 1.49.89 2.48 1.08.98.18 1.88.15 2.69-.11s1.49-.69 2.02-1.31c.53-.62.88-1.35 1.04-2.21.16-.86.11-1.67-.17-2.44ZM13.5 69.76c-.81.06-1.52.32-2.14.78-.62.47-1.09 1.11-1.41 1.92-.32.81-.43 1.62-.31 2.42.12.8.45 1.53 1 2.18.55.65 1.28 1.15 2.2 1.52.92.36 1.79.49 2.63.39.84-.1 1.58-.4 2.21-.91.63-.5 1.11-1.16 1.43-1.98.45-1.14.48-2.21.09-3.22-.39-1.01-1.14-1.8-2.25-2.38l-1.84 4.65-1.24-.49 2.48-6.28 1.17.46a6.32 6.32 0 0 1 2.28 1.95c.6.83.96 1.75 1.09 2.77.13 1.02 0 2.04-.41 3.07-.43 1.08-1.07 1.97-1.93 2.66-.86.69-1.85 1.12-2.95 1.28-1.11.16-2.23.02-3.37-.43-1.14-.45-2.06-1.11-2.76-1.99a6.07 6.07 0 0 1-1.29-2.96c-.16-1.09-.02-2.18.41-3.26.49-1.24 1.23-2.21 2.22-2.93.99-.71 2.13-1.06 3.42-1.06l-.72 1.82ZM18.59 55.14l3.56 2.22 2.42-3.88 1.14.71-2.42 3.88 3.67 2.29 2.7-4.34 1.14.71-3.57 5.73-10.66-6.65 3.57-5.73 1.15.71-2.7 4.34ZM32.31 34.69l1.01.87-2.24 2.58 8.46 7.36-1.07 1.24-8.46-7.36-2.26 2.6-1.01-.87 5.57-6.41ZM48.11 20.5l7.91 9.74-1.27 1.03-3.59-4.41-4.96 4.03 3.59 4.41-1.27 1.03-7.91-9.74 1.27-1.03 3.47 4.27 4.96-4.03-3.47-4.27 1.27-1.03ZM60.46 14.03l2.06 3.65 3.98-2.24.66 1.18-3.98 2.24 2.12 3.76 4.45-2.51.66 1.18-5.88 3.31-6.17-10.95 5.88-3.31.66 1.18-4.45 2.51ZM85.6 14.83l-4.57-3.79-1.86.68 1.77 4.82-1.54.56-4.32-11.78 3.8-1.39c.89-.33 1.7-.45 2.42-.37.73.08 1.34.32 1.83.73s.86.94 1.11 1.61c.3.81.33 1.61.09 2.4-.24.79-.79 1.46-1.65 2l4.77 3.85-1.84.67Zm-6.88-4.34 2.26-.83c.83-.31 1.38-.74 1.65-1.3s.27-1.19.02-1.88c-.26-.7-.66-1.16-1.21-1.4-.55-.23-1.25-.19-2.09.12l-2.27.83 1.64 4.46Z"/><circle cx="119.53" cy="2.62" r="2.62"/></svg>