<?xml version="1.0" encoding="utf-8"?><svg xmlns="http://www.w3.org/2000/svg" width="32" height="32" viewBox="0 0 32 32"><path d="M14.6 16L1.5 29.1c-.4.4-.4 1 0 1.3.2.2.4.3.7.3.2 0 .5-.1.7-.3L16 17.2l13.2 13.2c.2.2.4.3.7.3.2 0 .5-.1.7-.3.4-.4.4-1 0-1.3L17.4 16 30.5 2.9c.4-.4.4-1 0-1.3s-1-.4-1.3 0L16 14.8 2.8 1.6c-.4-.4-1-.4-1.3 0-.4.4-.4 1 0 1.3L14.6 16z"/><path d="M29.9 31.4c-.4 0-.8-.2-1.2-.5L16 18.2 3.3 30.9c-.6.6-1.7.6-2.3 0-.3-.3-.5-.7-.5-1.1s.2-.8.5-1.2L13.6 16 1 3.4C.7 3.1.5 2.7.5 2.2c0-.4.2-.8.5-1.2.6-.6 1.7-.6 2.3 0L16 13.8 28.7 1.1c.6-.6 1.7-.6 2.3 0 .6.6.6 1.7 0 2.3L18.4 16 31 28.6c.6.6.6 1.7 0 2.3-.3.3-.7.5-1.1.5zM16 16.2l13.7 13.7c.1.1.2.1.3 0 .1-.1.1-.2 0-.3L16.4 16 30 2.4c.1-.1.1-.2 0-.3 0-.1-.1-.1-.1-.1s-.1 0-.2.1L16 15.8 2.3 2.1C2.2 2 2.2 2 2.1 2c0 0-.1 0-.1.1-.1 0-.1.1-.1.1s0 .1.1.2L15.6 16 2 29.6c-.1.1-.1.1-.1.2 0 0 0 .1.1.2h.1s.1 0 .2-.1L16 16.2z"/></svg>