<?xml version="1.0" encoding="UTF-8"?><svg xmlns="http://www.w3.org/2000/svg" viewBox="0 0 512 384"><path d="M320 0c-29.92 0-58.02 6.5-83.65 19.3-7.9 3.94-11.1 13.54-7.14 21.44 3.94 7.9 13.54 11.07 21.44 7.17 21.12-10.56 44.48-15.9 69.34-15.9 88.22 0 160 71.78 160 160s-71.78 160-160 160c-27.04 0-53.44-6.82-76.61-19.87-21.41-11.39-40.38-28.42-54.88-49.09l-47.36-68.16c-5.02-7.26-15.01-9.09-22.27-4-7.26 5.02-9.06 15.01-4.03 22.24l47.42 68.22c17.38 24.83 40.22 45.22 65.73 58.85 27.65 15.58 59.46 23.81 92 23.81 105.89 0 192-86.11 192-192S425.89 0 320 0Z"/><path d="m332.38 181.86-48.58-59.14c-24.77-30.56-59.81-50.66-98.34-56.58-8.22-1.44-16.8-2.14-25.47-2.14C71.78 64 0 135.78 0 224s68.74 158.21 156.48 160h.32c8.67 0 15.81-6.94 16-15.68.16-8.83-6.85-16.13-15.68-16.32C86.94 350.56 32 294.34 32 224c0-77.34 70.62-139.68 148.29-126.27 30.98 4.77 58.91 20.8 78.69 45.22l48.64 59.2c5.66 6.85 15.71 7.81 22.56 2.24 6.82-5.63 7.81-15.71 2.21-22.53Z"/></svg>