<?xml version="1.0" encoding="utf-8"?><svg xmlns="http://www.w3.org/2000/svg" width="24.2" height="31.9" viewBox="3.9 0.1 24.2 31.9"><path d="M25.9 31.9H6c-1.2 0-2.1-.9-2.1-2.1V2.2C3.9 1 4.8.1 6 .1h15.5c.2 0 .4.1.5.2l5.9 5.9c.1.1.1.3.1.5v23.1c0 1.2-.9 2.1-2.1 2.1zM6 1.4c-.4 0-.7.3-.7.7v27.7c0 .4.3.7.7.7h19.9c.4 0 .8-.4.8-.8V6.9l-5.5-5.5H6z"/><path d="M27.4 7.3h-4.6c-1.2 0-2.2-1-2.2-2.2V.8H22v4.3c0 .4.4.8.8.8h4.6v1.4zM22.5 11.7H9.4c-.4 0-.7-.3-.7-.7s.3-.7.7-.7h13.1c.4 0 .7.3.7.7s-.4.7-.7.7zM22.5 16.2H9.4c-.4 0-.7-.3-.7-.7 0-.4.3-.7.7-.7h13.1c.4 0 .7.3.7.7-.1.4-.4.7-.7.7zM22.5 20.7H9.4c-.4 0-.7-.3-.7-.7 0-.4.3-.7.7-.7h13.1c.4 0 .7.3.7.7-.1.4-.4.7-.7.7zM15.9 25.2H9.4c-.4 0-.7-.3-.7-.7 0-.4.3-.7.7-.7h6.5c.4 0 .7.3.7.7 0 .4-.3.7-.7.7z"/></svg>