<?xml version="1.0" encoding="utf-8"?><svg xmlns="http://www.w3.org/2000/svg" width="32" height="32" viewbox="0 0 32 32"><path d="M16 8.6c-4.1 0-7.4 3.4-7.4 7.4 0 4.1 3.4 7.4 7.4 7.4s7.4-3.4 7.4-7.4c0-4.1-3.3-7.4-7.4-7.4zm0 12.2c-2.6 0-4.8-2.2-4.8-4.8 0-2.6 2.2-4.8 4.8-4.8 2.6 0 4.8 2.2 4.8 4.8 0 2.6-2.2 4.8-4.8 4.8zm9.5-12.5c0 1-.8 1.7-1.7 1.7-1 0-1.7-.8-1.7-1.7 0-1 .8-1.7 1.7-1.7.9 0 1.7.7 1.7 1.7zm4.9 1.7c-.1-2.4-.6-4.4-2.4-6.1-1.7-1.7-3.7-2.3-6.1-2.4-2.4-.1-9.6-.1-12 0s-4.2.7-6 2.4C2.2 5.7 1.7 7.6 1.6 10s-.1 9.5 0 12c.1 2.4.6 4.4 2.4 6.1 1.7 1.7 3.7 2.3 6.1 2.4s9.6.1 12 0c2.4-.1 4.4-.6 6.1-2.4s2.3-3.7 2.4-6.1c-.1-2.5-.1-9.6-.2-12zm-3.1 14.5c-.5 1.3-1.5 2.3-2.7 2.7-1.9.7-6.4.5-8.5.5-2.1 0-6.6.2-8.5-.5-1.3-.5-2.3-1.5-2.7-2.7-.7-1.9-.5-6.4-.5-8.5s-.5-6.6.3-8.5c.5-1.3 1.5-2.3 2.7-2.7 1.9-.7 6.4-.5 8.5-.5s6.6-.2 8.5.5c1.3.5 2.3 1.5 2.7 2.7.7 1.9.5 6.4.5 8.5s.5 6.6-.3 8.5z"/></svg>