<?xml version="1.0" encoding="UTF-8"?><svg xmlns="http://www.w3.org/2000/svg" viewBox="0 0 200 200"><circle cx="100" cy="100" r="100"/><path fill="#fff" d="M105.83 55.28c5.33 3.37 9.28 7.95 11.83 13.75V51.45h29.58v97.1h-29.58v-17.57c-2.55 5.8-6.5 10.38-11.83 13.75-5.34 3.36-11.72 5.04-19.14 5.04-8 0-15.17-2-21.49-6-6.32-4-11.31-9.77-14.97-17.31-3.65-7.54-5.48-16.36-5.48-26.45s1.83-19.06 5.48-26.54c3.65-7.48 8.64-13.23 14.97-17.23 6.32-4 13.49-6 21.49-6 7.42 0 13.8 1.68 19.14 5.05ZM80.86 82.6c-3.89 4.18-5.83 9.98-5.83 17.4s1.94 13.22 5.83 17.4c3.88 4.18 9.02 6.27 15.4 6.27s11.4-2.15 15.4-6.44c4-4.29 6-10.03 6-17.23s-2-13.08-6-17.31c-4-4.23-9.14-6.35-15.4-6.35s-11.52 2.09-15.4 6.26Z"/></svg>