<?xml version="1.0" encoding="UTF-8"?><svg xmlns="http://www.w3.org/2000/svg" viewBox="0 0 652.6 111.2"><path d="M3.8 50.2V5.6c0-2.2-1.1-4.5-2.6-5.6h10.6L33 48 54.2 0h9.7c-1.1 1.2-1.8 3.4-1.8 5.6v46.5c0 2.2.7 4.5 1.8 5.6h-11c1.1-1.2 1.8-3.4 1.8-5.6v-48L31.1 57.7h-1.7L5.8 4.1v46c0 3.1 1.5 6.1 3.7 7.6H0c2.2-1.5 3.8-4.5 3.8-7.6v.1Zm74.9-15.3V5.6c0-2.2-.7-4.5-1.8-5.6h11c-1.1 1.2-1.8 3.4-1.8 5.6v30.6c0 12 7.8 19.7 19.6 19.7s19.1-7.8 19.1-19.7V7.6c0-3.1-1.5-6.1-3.7-7.6h9.5c-2.2 1.5-3.8 4.5-3.8 7.6v28.7c0 13.4-8.7 22.3-22.9 22.3s-25.2-9.4-25.2-23.7Zm82 17.2V1.6h-7.8c-4.7 0-9.3 3.5-11.7 8.7V0h46.4v10.3c-2.3-5.2-7-8.7-11.6-8.7h-7.8v50.5c0 2.2.7 4.5 1.8 5.6h-11c1.1-1.2 1.8-3.4 1.8-5.6h-.1Zm41.9 0V5.6c0-2.2-.7-4.5-1.8-5.6h11c-1.1 1.2-1.8 3.4-1.8 5.6v22h34.1v-22c0-2.2-.7-4.5-1.8-5.6h11c-1.1 1.2-1.8 3.4-1.8 5.6v46.5c0 2.2.7 4.5 1.8 5.6h-11c1.1-1.2 1.8-3.4 1.8-5.6V29.2H210v22.9c0 2.2.7 4.5 1.8 5.6h-11c1.1-1.2 1.8-3.4 1.8-5.6Zm66.5-3.7L290.4 0h3.3l22 50.5c1.5 3.3 3.4 6.1 4.9 7.3h-13.1c1.6-1.5 1.7-4.7.2-8l-4-9.1h-28.8l-3.5 7.9c-1.7 3.7-1.2 7.3 1.1 9.2h-9.9c2-1.2 4.4-4.5 6.4-9.3l.1-.1ZM303 39 289.4 7.5 275.7 39H303Zm56.5 13.6V6.1c0-2.2-.7-4.5-1.8-5.6h28.6c12 0 21 7.7 21 18s-9 18-21 18h-19.5v16.2c0 2.2 1.1 4.5 2.6 5.6h-11.8c1.1-1.2 1.8-3.4 1.8-5.6l.1-.1Zm7.3-50.5v32.7h17.9c9 0 14.9-6.5 14.9-16.3s-5.9-16.3-14.9-16.3h-17.9v-.1Zm53.5 50.5V6.1c0-2.2-.7-4.5-1.8-5.6h45v10.1c-2.3-5.1-7.1-8.5-11.8-8.5h-24v26h16.8c3.6 0 7.3-1.9 9.1-4.8v11.2c-1.8-2.9-5.4-4.8-9.1-4.8h-16.8v26.8h24.8c4.7 0 9.5-3.4 11.8-8.6v10.2h-45.8c1.1-1.2 1.8-3.4 1.8-5.6v.1Zm62.2-3.8L503.8.4h3.3l22 50.5c1.5 3.3 3.4 6.1 4.9 7.3h-13.1c1.6-1.5 1.7-4.7.2-8l-4-9.1h-28.8l-3.5 7.9c-1.7 3.7-1.2 7.3 1.1 9.2H476c2-1.2 4.4-4.5 6.4-9.3l.1-.1Zm33.9-9.4L502.8 7.9l-13.7 31.5h27.3Zm30.3 13.2V6.1c0-2.2-.7-4.5-1.8-5.6h24.5c12 0 21 7 21 16.4s-7.3 15.1-17.3 16.3c4 1.1 7.2 3.1 8.8 6.1l7.4 12.6c1.5 2.7 4 5.2 6.1 6.3h-8.3c-2.3-1.2-4.4-3.2-5.7-5.5l-8.3-14.6c-1.1-1.9-2.9-3.6-5-4.6h-14v19.1c0 2.2.7 4.5 1.8 5.6h-11c1.1-1.2 1.8-3.4 1.8-5.6Zm7.4-50.5v29.7H568c8.8 0 14.7-5.9 14.7-14.9S576.8 2 568 2h-13.9v.1Zm54 50.5V6.1c0-2.2-.7-4.5-1.8-5.6h11c-1.1 1.2-1.8 3.4-1.8 5.6v50.5h25.1c4.8 0 9.6-3.5 12-8.7v10.3h-46.2c1.1-1.2 1.8-3.4 1.8-5.6h-.1Zm-364 38.7v19.6h-1l-13.9-15.4v15.4h-1.5V91.3h2.1l12.8 14.2V91.3h1.5Zm25.7 18.3v1.4h-14.2V91.4h13.9v1.4H259v7.6h8.2v1.3H259v7.9h10.8Zm38-18.3-8.6 19.6h-1.3L293 99.6l-5 11.3h-1.3l-8.6-19.6h3.6l6.6 15.2 3.8-8.9-2.8-6.3h3.6l6.6 15.2 6.6-15.2h1.7Zm34.3 0-7.1 11.2v8.4h-3.4v-8.4l-7.1-11.2h3.8l6.1 9.6 6-9.6h1.8-.1Zm6.5 9.8c0-5.8 4.5-10.1 10.4-10.1s10.3 4.3 10.3 10.1-4.5 10.1-10.3 10.1-10.4-4.3-10.4-10.1Zm17.2 0c0-5.3-2.7-8.7-6.8-8.7s-6.8 3.4-6.8 8.7 2.7 8.7 6.8 8.7 6.8-3.4 6.8-8.7Zm30.6 9.8h-3.8c-.6-.4-1-1-1.3-1.6l-2.6-5c-.3-.5-.7-1-1.2-1.3h-4.4v8h-3.4V91.4h8.1c4.1 0 7.2 2.4 7.2 5.8s-2 4.8-4.9 5.6c1.2.4 2 1.1 2.4 2.2l2.2 4c.4.9 1.1 1.7 1.7 2.1v-.2Zm-13.3-9.3h3.9c2.7 0 4.5-1.8 4.5-4.5s-1.8-4.4-4.5-4.4h-3.9v8.9Zm28.8-.8-2.3 2.1v8h-3.4V91.3h3.4v9.8l10.7-9.8h2.2l-8.1 7.3 8.8 12.3h-4l-7.2-10.1h-.1Z"/></svg>