<?xml version="1.0" encoding="UTF-8"?><svg xmlns="http://www.w3.org/2000/svg" viewBox="0 0 164.85 231.71"><path fill="#ed1b35" d="M164.73 58.43c.16-.21.16-.47.04-.7a.633.633 0 0 0-.61-.3l-18.36 2.09c-.41.05-.81-.16-1.04-.51-.1-.17-.14-.35-.14-.56l-.22-9.33c0-.23-.13-.44-.33-.53-.2-.11-.46-.1-.64.02l-12.17 7.82c-.49.31-1.15.13-1.45-.38-.04-.07-.07-.17-.1-.26l-1.87-6.75a.581.581 0 0 0-.44-.44c-.2-.06-.44 0-.59.15l-20.02 18.73c-.24.21-.54.34-.86.34a1.255 1.255 0 0 1-1.22-1.57l7.77-35.12a.658.658 0 0 0-.18-.6c-.17-.16-.39-.21-.61-.16l-7.5 2.06c-.1.02-.2.05-.31.05-.7 0-1.26-.56-1.26-1.26l.58-16.06a.65.65 0 0 0-.29-.57c-.19-.11-.45-.13-.64 0l-9.06 5.1c-.19.11-.41.18-.63.18-.5 0-.94-.29-1.14-.74L83 .37c-.1-.22-.31-.37-.57-.37s-.47.15-.57.38l-8.42 18.74c-.19.45-.65.74-1.14.74-.22 0-.44-.07-.66-.19l-9.03-5.07a.614.614 0 0 0-.64 0 .66.66 0 0 0-.3.57l.6 16.06c-.01.7-.57 1.26-1.26 1.26-.11 0-.21-.03-.31-.05l-7.51-2.06c-.21-.04-.45 0-.61.16-.16.15-.23.38-.18.6l7.77 35.13c.02.11.04.19.04.3 0 .7-.57 1.26-1.26 1.26-.33 0-.63-.13-.86-.34L38.08 48.76c-.17-.15-.38-.21-.61-.15-.2.06-.38.23-.44.44l-1.86 6.75c-.03.09-.06.18-.1.26-.3.5-.96.68-1.47.37l-12.17-7.81a.618.618 0 0 0-.63-.02c-.21.1-.33.3-.34.53l-.21 9.34c0 .19-.04.38-.15.55-.21.35-.61.56-1.03.51L.71 57.44c-.25-.02-.49.1-.62.3a.64.64 0 0 0 .03.69l10.66 15.1c.24.34.25.81.04 1.16-.1.16-.23.3-.42.4l-8.08 4.66c-.21.12-.33.33-.32.55 0 .23.13.44.33.55l12.71 6.92c.51.3.67.95.37 1.46-.04.08-.1.16-.17.22l-5.03 4.87c-.16.16-.21.38-.16.59.04.22.21.39.41.47l30.2 9.91c.52.17.87.66.87 1.21s-.38 1.07-.91 1.21l-9.73 2.46c-.22.07-.39.23-.45.45-.06.21.01.46.17.61l5.41 5.29c.11.1.18.21.21.34.09.28 0 .58-.21.76l-11.38 9.74c-.19.16-.27.41-.21.65.07.23.28.42.53.46l14.83 2.03c.3.04.53.24.62.53.03.13.03.25 0 .41l-1.7 7.37c-.06.21 0 .46.18.61.17.16.41.21.61.13l11.12-3.7c.05-.03.1-.03.15-.03.06 0 .11-.02.16-.04l25.39-8.36c-.5-7.17-.79-14.7-.68-22.26.01-.57.02-1.14.02-1.73l-10.79-6.49-.11.16a.74.74 0 0 1-.62.33.63.63 0 0 1-.4-.12.728.728 0 0 1-.21-1.02l.09-.11-22.67-13.65c-1.92-1-3.76-1.17-5.52-.5-1.51.57-2.37 1.58-2.37 1.59-.05.05-.11.07-.16.07s-.07 0-.11-.04l-12-7.17s-.07-.07-.1-.11c-.43-1.2 2.83-5.3 4.19-6.48.5-.44.81-.57 1.04-.44 0 0 .02 0 .02.02 4.1 3.08 12.02 8.72 15.27 11.02l23.44 14.12.07-.12c.24-.34.7-.44 1.02-.21.34.21.44.68.21 1.02l-.04.06 9.8 5.91c.3-12.91 1.23-29.53 2.49-44.47.53-6.36 2.4-27.28 4.09-29.37.07-.1.24-.1.32 0 .61.75 1.29 3.93 2.03 9.49.68 5.06 1.39 11.94 2.06 19.88 1.27 14.94 2.18 31.56 2.49 44.47l9.79-5.91-.05-.06c-.21-.34-.13-.81.21-1.02a.73.73 0 0 1 1.02.21l.09.12 23.44-14.12c3.24-2.31 11.18-7.94 15.25-11.02.01 0 .03 0 .04-.02.21-.13.53 0 1.03.44 1.38 1.18 4.63 5.28 4.2 6.49-.03.03-.05.08-.1.11l-12 7.17s-.08.04-.12.04c-.07 0-.12-.02-.16-.07-.15-.16-3.08-3.55-7.87-1.1l-22.68 13.65.08.11c.22.34.13.8-.21 1.02-.13.09-.27.12-.41.12-.24 0-.47-.1-.61-.33l-.11-.16-10.81 6.49c.01.6.03 1.17.04 1.73.11 7.55-.18 15.09-.68 22.26l25.4 8.36s.1.03.16.04c.04 0 .08 0 .13.03l11.12 3.7c.08.03.14.03.21.03.16 0 .3-.05.43-.16.16-.15.24-.39.18-.61l-1.7-7.38a.855.855 0 0 1 0-.39.8.8 0 0 1 .61-.53l14.84-2.03a.61.61 0 0 0 .51-.46c.07-.24 0-.5-.19-.65l-11.38-9.73a.743.743 0 0 1-.23-.78c.04-.13.11-.24.22-.34l5.41-5.29c.16-.15.23-.39.17-.61a.671.671 0 0 0-.46-.45l-9.71-2.46c-.54-.15-.92-.65-.92-1.21s.36-1.03.87-1.21l30.2-9.91c.2-.07.36-.24.41-.47a.647.647 0 0 0-.18-.59l-5.02-4.87a.567.567 0 0 1-.16-.22c-.3-.5-.14-1.15.36-1.46l12.72-6.92c.19-.11.33-.32.33-.55s-.12-.44-.31-.55l-8.1-4.67c-.16-.09-.3-.22-.4-.38-.22-.36-.19-.82.04-1.16l10.64-15.1ZM14.62 152.28h10.35c3.36 0 5.67.87 7.14 2.38 1.29 1.25 1.95 2.95 1.95 5.1v.07c0 3.34-1.78 5.57-4.5 6.72l5.22 7.64h-7.01l-4.42-6.64h-2.66v6.64h-6.06v-21.91Zm10.07 10.53c2.06 0 3.25-1.01 3.25-2.6v-.08c0-1.7-1.25-2.6-3.29-2.6h-3.96v5.27h4ZM35.68 163.3v-.06c0-6.3 5.08-11.4 11.83-11.4s11.77 5.04 11.77 11.33v.07c0 6.29-5.07 11.38-11.83 11.38s-11.77-5.03-11.77-11.32Zm17.4 0v-.06c0-3.17-2.28-5.92-5.63-5.92s-5.53 2.69-5.53 5.86v.07c0 3.16 2.29 5.91 5.59 5.91s5.57-2.69 5.57-5.85ZM59.06 152.28h6.41l3.82 12.68 4.22-12.73h5.22l4.22 12.73 3.82-12.68h6.29l-7.32 22.07h-5.29l-4.41-12.61-4.38 12.61h-5.29l-7.33-22.07ZM95.52 152.28h6.1v21.91h-6.1v-21.91ZM105.61 152.28h5.66l9.02 11.58v-11.58h6.01v21.91h-5.32l-9.36-12.02v12.02h-6.01v-21.91ZM129.37 163.3v-.06c0-6.38 5-11.4 11.8-11.4 3.85 0 6.56 1.19 8.88 3.2l-3.56 4.28c-1.58-1.31-3.14-2.06-5.3-2.06-3.15 0-5.59 2.66-5.59 6.01v.07c0 3.54 2.47 6.07 5.95 6.07 1.46 0 2.6-.31 3.51-.91v-2.66h-4.32v-4.45h10.07v9.86c-2.32 1.91-5.54 3.37-9.52 3.37-6.83 0-11.92-4.7-11.92-11.33ZM12.31 191.84v-.06c0-6.38 4.92-11.4 11.55-11.4 4.48 0 7.36 1.89 9.3 4.58l-4.57 3.53c-1.26-1.58-2.69-2.57-4.79-2.57-3.08 0-5.22 2.6-5.22 5.78v.07c0 3.28 2.14 5.84 5.22 5.84 2.28 0 3.62-1.07 4.93-2.66l4.58 3.26c-2.06 2.83-4.85 4.93-9.7 4.93-6.26 0-11.29-4.79-11.29-11.32ZM42.61 180.66h5.85l9.32 22.06h-6.5l-1.6-3.9h-8.45l-1.56 3.9h-6.39l9.33-22.06Zm5.31 13.42-2.44-6.23-2.48 6.23h4.92ZM59.85 180.81h5.66l9.02 11.58v-11.58h6.01v21.91h-5.32l-9.36-12.01v12.01h-6.01v-21.91ZM91.93 180.66h5.85l9.33 22.06h-6.51l-1.6-3.9h-8.45l-1.57 3.9h-6.39l9.34-22.06Zm5.32 13.42-2.44-6.23-2.47 6.23h4.91ZM109.19 180.81h8.45c7.82 0 12.36 4.51 12.36 10.84v.06c0 6.32-4.59 11.01-12.48 11.01h-8.33v-21.91Zm8.54 16.55c3.63 0 6.04-2 6.04-5.55v-.07c0-3.51-2.4-5.54-6.04-5.54h-2.47v11.15h2.47ZM138.48 180.66h5.84l9.32 22.06h-6.5l-1.6-3.9h-8.45l-1.57 3.9h-6.38l9.34-22.06Zm5.31 13.42-2.44-6.23-2.47 6.23h4.91ZM28.92 209.21h5.85l9.32 22.06h-6.5l-1.6-3.91h-8.45l-1.57 3.91h-6.39l9.34-22.07Zm5.31 13.43-2.44-6.23-2.48 6.23h4.92ZM40.05 209.37h6.8l4.98 13.86 4.97-13.86h6.66l-8.88 22.06h-5.64l-8.89-22.06ZM65.64 209.37h6.1v21.91h-6.1v-21.91ZM75.74 209.37h10.35c3.35 0 5.67.88 7.14 2.37 1.29 1.25 1.95 2.94 1.95 5.1v.07c0 3.34-1.78 5.58-4.5 6.72l5.22 7.63h-7l-4.42-6.63h-2.66v6.63h-6.07v-21.9Zm10.07 10.52c2.06 0 3.25-1.01 3.25-2.6v-.07c0-1.71-1.26-2.6-3.29-2.6H81.8v5.27h4.01ZM96.81 220.39v-.07c0-6.3 5.07-11.39 11.83-11.39s11.77 5.04 11.77 11.32v.07c0 6.29-5.08 11.39-11.84 11.39s-11.76-5.04-11.76-11.32Zm17.4 0v-.07c0-3.17-2.29-5.92-5.64-5.92s-5.53 2.69-5.53 5.86v.07c0 3.16 2.29 5.92 5.6 5.92 3.34 0 5.57-2.69 5.57-5.85ZM122.88 209.37h5.66l9.02 11.58v-11.58h6.01v21.91h-5.32l-9.36-12.02v12.02h-6.01v-21.91Z"/></svg>