<?xml version="1.0" encoding="utf-8"?><svg xmlns="http://www.w3.org/2000/svg" xml:space="preserve" width="277" height="64.3" viewBox="0 0 277 64.3"><path fill="#DB0632" d="M277 6c0 3.4-2.5 6-6 6-3.6 0-6.1-2.5-6.1-6s2.5-6 6.1-6c3.5 0 6 2.5 6 6"/><path d="M0 14.4h8.5l.4 3.9c2.1-3 5.4-4.6 9.4-4.6 8.3 0 12.9 4.9 12.9 13.9v11c0 8.9-4.9 14.1-13.1 14.1-3.6 0-6.4-1.2-8.3-3.3v10.5L0 63.5V14.4zm9.7 23c0 4.2 2.3 6.7 5.9 6.7s5.9-2.5 5.9-6.7v-8.5c0-4.2-2.3-6.7-5.9-6.7s-5.9 2.5-5.9 6.7v8.5zm55.8 14.5h-7.9l-.6-3c-2.1 2.3-5.3 3.8-9.5 3.8-8.3 0-12.8-4.8-12.8-11.5s4.9-11.7 13.1-11.7c3.3 0 6 .9 8 2.5v-1.8c0-5.5-2.9-8-7.6-8-5.4 0-9.1 2.2-9.1 2.2l-2.5-7.6s4.8-3.2 13.4-3.2c9.7 0 15.5 5.4 15.5 15.8v22.5zm-9.3-11.1c0-2.8-2.4-4.9-6-4.9-3.5 0-5.8 2.2-5.8 4.9 0 2.8 2.3 4.9 5.8 4.9 3.8 0 6-2.1 6-4.9m14.6-26.4h8.5l.5 5.8c2.3-4.3 6.4-6.5 11.8-6.5v9.9h-4c-4.1 0-7 2.5-7 8.1v20.2h-9.7V14.4h-.1zm53 37.5h-7.9l-.6-3c-2.1 2.3-5.3 3.8-9.5 3.8-8.3 0-12.8-4.8-12.8-11.5s4.9-11.7 13.1-11.7c3.3 0 6 .9 8 2.5v-1.8c0-5.5-2.9-8-7.6-8-5.4 0-9.1 2.2-9.1 2.2l-2.5-7.6s4.8-3.2 13.4-3.2c9.7 0 15.5 5.4 15.5 15.8v22.5zm-9.4-11.1c0-2.8-2.4-4.9-6-4.9-3.5 0-5.8 2.2-5.8 4.9 0 2.8 2.3 4.9 5.8 4.9 3.8 0 6-2.1 6-4.9m45.1 11.1h-8.6l-.3-3.8c-2.1 3-5.4 4.6-9.4 4.6-8.3 0-12.9-4.9-12.9-13.9v-11c0-9 4.9-14.2 13.1-14.2 3.5 0 6.4 1.2 8.3 3.4V4.9l9.7-3.9.1 50.9zm-9.8-23c0-4.2-2.3-6.7-5.9-6.7-3.6 0-5.9 2.5-5.9 6.7v8.5c0 4.2 2.3 6.7 5.9 6.7 3.6 0 5.9-2.5 5.9-6.7v-8.5zm15.4-14.5h10v37.5h-10V14.4zM183 53.3s4.6 2.4 9.8 2.4c5.5 0 8.1-2.5 8.1-7.8v-2.3c-2.1 2.3-5 3.6-8.6 3.6-8.3 0-12.9-4.9-12.9-13.8v-7.5c0-9 4.9-14.2 13.1-14.2 4 0 7.2 1.5 9.2 4.4l.3-3.6h8.6V47c0 11.3-6.6 17.3-17.1 17.3-8.5 0-13.6-3.3-13.6-3.3l3.1-7.7zm18-24.4c0-4.2-2.3-6.7-5.9-6.7-3.6 0-5.9 2.5-5.9 6.7v5.6c0 4.2 2.3 6.7 5.9 6.7 3.6 0 5.9-2.5 5.9-6.7v-5.6zm24.9 23h-9.7V14.4h8.5l.4 4.2c2.1-3.2 5.5-4.9 9.6-4.9 4.5 0 8 2.1 9.9 6 2-3.8 5.7-6 10.2-6 6.8 0 11.3 4.7 11.3 13.1V52h-9.7V29c0-4.7-1.7-6.8-4.9-6.8s-5.4 2-5.4 6.8v22.9h-9.7V29c0-4.7-1.7-6.8-4.9-6.8s-5.4 2-5.4 6.6v23.1h-.2zM277 6"/></svg>