<?xml version="1.0" encoding="UTF-8"?><svg xmlns="http://www.w3.org/2000/svg" viewBox="0 0 475.27 58.46"><path d="M25.27 19.37c2.21 1.39 3.84 3.29 4.9 5.69v-7.27h12.24v40.18H30.17V50.7c-1.06 2.4-2.69 4.3-4.9 5.69-2.21 1.39-4.85 2.09-7.92 2.09-3.31 0-6.28-.83-8.89-2.48-2.62-1.66-4.68-4.04-6.19-7.16C.76 45.72 0 42.07 0 37.9s.76-7.88 2.27-10.98c1.51-3.1 3.58-5.47 6.19-7.13 2.62-1.66 5.58-2.48 8.89-2.48 3.07 0 5.71.7 7.92 2.09Zm-10.33 11.3c-1.61 1.73-2.41 4.13-2.41 7.2s.8 5.47 2.41 7.2c1.61 1.73 3.73 2.59 6.37 2.59s4.72-.89 6.37-2.66c1.66-1.78 2.48-4.15 2.48-7.13s-.83-5.41-2.48-7.16c-1.66-1.75-3.78-2.63-6.37-2.63s-4.76.86-6.37 2.59ZM69.16 19.51c2.42-1.44 5.05-2.16 7.88-2.16v13.18h-3.53c-3.26 0-5.8.7-7.6 2.09-1.8 1.39-2.7 3.74-2.7 7.06v18.29H50.9V17.78h12.31v7.56c1.54-2.45 3.52-4.39 5.94-5.83ZM111.71 19.76c3.14 1.66 5.62 4.04 7.42 7.16 1.8 3.12 2.7 6.77 2.7 10.94s-.9 7.82-2.7 10.94c-1.8 3.12-4.27 5.51-7.42 7.16-3.14 1.66-6.71 2.48-10.69 2.48s-7.56-.83-10.73-2.48c-3.17-1.66-5.65-4.04-7.45-7.16-1.8-3.12-2.7-6.77-2.7-10.94s.9-7.82 2.7-10.94c1.8-3.12 4.28-5.51 7.45-7.16 3.17-1.66 6.74-2.48 10.73-2.48s7.55.83 10.69 2.48ZM95.08 30.49c-1.61 1.7-2.41 4.16-2.41 7.38s.8 5.66 2.41 7.34c1.61 1.68 3.59 2.52 5.94 2.52s4.32-.84 5.9-2.52c1.58-1.68 2.38-4.13 2.38-7.34s-.79-5.68-2.38-7.38c-1.58-1.7-3.55-2.56-5.9-2.56s-4.33.85-5.94 2.56ZM164.7 21.96c2.71 3.07 4.07 7.3 4.07 12.67v23.33h-12.31V36.07c0-2.69-.71-4.79-2.12-6.3-1.42-1.51-3.3-2.27-5.65-2.27-2.5 0-4.48.79-5.94 2.38-1.46 1.58-2.2 3.84-2.2 6.77v21.31h-12.31V17.78h12.31v7.34c1.15-2.4 2.87-4.3 5.15-5.69 2.28-1.39 4.96-2.09 8.03-2.09 4.61 0 8.27 1.54 10.98 4.61ZM225.25 19.76c2.62 1.66 4.68 4.03 6.19 7.13 1.51 3.1 2.27 6.76 2.27 10.98s-.76 7.82-2.27 10.94c-1.51 3.12-3.58 5.51-6.19 7.16-2.62 1.66-5.58 2.48-8.89 2.48-3.07 0-5.71-.7-7.92-2.09s-3.82-3.29-4.82-5.69v7.27h-12.31V4.68h12.31v20.38c1.01-2.4 2.62-4.3 4.82-5.69 2.21-1.39 4.85-2.09 7.92-2.09 3.31 0 6.27.83 8.89 2.48Zm-19.22 10.95c-1.66 1.75-2.48 4.14-2.48 7.16s.83 5.35 2.48 7.13c1.66 1.78 3.78 2.66 6.37 2.66s4.76-.86 6.37-2.59 2.41-4.13 2.41-7.2-.8-5.47-2.41-7.2-3.73-2.59-6.37-2.59-4.72.88-6.37 2.63ZM269.6 19.76c3.14 1.66 5.62 4.04 7.42 7.16 1.8 3.12 2.7 6.77 2.7 10.94s-.9 7.82-2.7 10.94c-1.8 3.12-4.27 5.51-7.42 7.16-3.14 1.66-6.71 2.48-10.69 2.48s-7.56-.83-10.73-2.48c-3.17-1.66-5.65-4.04-7.45-7.16-1.8-3.12-2.7-6.77-2.7-10.94s.9-7.82 2.7-10.94c1.8-3.12 4.28-5.51 7.45-7.16 3.17-1.66 6.74-2.48 10.73-2.48s7.55.83 10.69 2.48Zm-16.63 10.73c-1.61 1.7-2.41 4.16-2.41 7.38s.8 5.66 2.41 7.34c1.61 1.68 3.59 2.52 5.94 2.52s4.32-.84 5.9-2.52c1.58-1.68 2.38-4.13 2.38-7.34s-.79-5.68-2.38-7.38c-1.58-1.7-3.55-2.56-5.9-2.56s-4.33.85-5.94 2.56ZM304.38 19.51c2.42-1.44 5.05-2.16 7.88-2.16v13.18h-3.53c-3.26 0-5.8.7-7.6 2.09-1.8 1.39-2.7 3.74-2.7 7.06v18.29h-12.31V17.78h12.31v7.56c1.54-2.45 3.52-4.39 5.94-5.83ZM340.2 47.38v10.58h-5.54c-4.7 0-8.36-1.16-10.98-3.49-2.62-2.33-3.92-6.18-3.92-11.56V28.15h-5.4V17.78h5.4V7.92h12.31v9.86h8.06v10.37h-8.06v14.98c0 1.58.32 2.69.97 3.31.65.62 1.74.94 3.28.94h3.89ZM376.59 19.76c3.14 1.66 5.62 4.04 7.42 7.16 1.8 3.12 2.7 6.77 2.7 10.94s-.9 7.82-2.7 10.94c-1.8 3.12-4.27 5.51-7.42 7.16-3.14 1.66-6.71 2.48-10.69 2.48s-7.56-.83-10.73-2.48c-3.17-1.66-5.65-4.04-7.45-7.16-1.8-3.12-2.7-6.77-2.7-10.94s.9-7.82 2.7-10.94c1.8-3.12 4.28-5.51 7.45-7.16 3.17-1.66 6.74-2.48 10.73-2.48s7.55.83 10.69 2.48Zm-16.63 10.73c-1.61 1.7-2.41 4.16-2.41 7.38s.8 5.66 2.41 7.34c1.61 1.68 3.59 2.52 5.94 2.52s4.32-.84 5.9-2.52c1.58-1.68 2.38-4.13 2.38-7.34s-.79-5.68-2.38-7.38c-1.58-1.7-3.55-2.56-5.9-2.56s-4.33.85-5.94 2.56ZM405.43 4.68v53.28h-12.31V4.68h12.31ZM414.79 1.84C416.13.62 417.91 0 420.12 0s3.98.61 5.33 1.84c1.34 1.22 2.02 2.77 2.02 4.64s-.67 3.35-2.02 4.57c-1.34 1.22-3.12 1.84-5.33 1.84s-3.99-.61-5.33-1.84c-1.34-1.22-2.02-2.75-2.02-4.57s.67-3.42 2.02-4.64Zm11.44 15.94v40.18h-12.31V17.78h12.31ZM471.2 21.96c2.71 3.07 4.07 7.3 4.07 12.67v23.33h-12.31V36.07c0-2.69-.71-4.79-2.12-6.3-1.42-1.51-3.3-2.27-5.65-2.27-2.5 0-4.48.79-5.94 2.38-1.46 1.58-2.2 3.84-2.2 6.77v21.31h-12.31V17.78h12.31v7.34c1.15-2.4 2.87-4.3 5.15-5.69 2.28-1.39 4.96-2.09 8.03-2.09 4.61 0 8.27 1.54 10.98 4.61Z"/></svg>