<?xml version="1.0" encoding="utf-8"?><svg xmlns="http://www.w3.org/2000/svg" width="24" height="32" viewBox="4 0 24 32"><path d="M27.8 6.9L21.1.2c-.1-.1-.3-.2-.4-.2h-14C5.2 0 4 1.2 4 2.7v26.7C4 30.8 5.2 32 6.7 32h18.7c1.5 0 2.7-1.2 2.7-2.7v-22c-.1-.1-.2-.3-.3-.4zm-6.5-4.6l4.4 4.4h-3.1c-.7 0-1.3-.6-1.3-1.3V2.3zm5.4 27c0 .7-.6 1.3-1.3 1.3H6.7c-.7 0-1.3-.6-1.3-1.3V2.7c0-.7.6-1.3 1.3-1.3H20v4C20 6.8 21.2 8 22.7 8h4v21.3z"/><path d="M19.4 19.6c-.6-.5-1.2-1-1.6-1.4-.5-.5-1-1-1.4-1.5.6-1.9.9-2.9.9-3.4 0-2.2-.8-2.7-2-2.7-.9 0-2 .5-2 2.7 0 1 .5 2.2 1.6 3.6-.3.8-.6 1.7-.9 2.8-.2.5-.4 1-.5 1.4-.2.1-.3.1-.5.2-.5.3-1 .5-1.5.7C9.4 23 8 23.7 8 25c0 1 1 1.5 2 1.5 1.2 0 3.1-1.7 4.5-4.4 1.4-.6 3.2-1 4.6-1.2 1.1.9 2.3 1.7 2.9 1.7 1.7 0 2-1 2-1.8 0-1.6-1.8-1.6-2.7-1.6-.2.1-1 .2-1.9.4zM10 25.3c-.4 0-.6-.2-.7-.2 0-.5 1.4-1.1 2.8-1.8.1 0 .2-.1.3-.1-1 1.5-2 2.1-2.4 2.1zm4.7-11.9c0-1.4.4-1.4.7-1.4.5 0 .7 0 .7 1.3 0 .3-.2 1-.5 2.1-.7-.8-.9-1.5-.9-2zm.5 7.2c0-.1.1-.2.1-.4.2-.7.5-1.4.7-2l.9.9.8.8c-.8.2-1.7.4-2.5.7zm7.5.3c0 .3 0 .4-.6.4-.2 0-.6-.3-1.1-.6h.4c.9 0 1.2.1 1.3.2z"/></svg>