<?xml version="1.0" encoding="UTF-8"?>
<svg xmlns="http://www.w3.org/2000/svg" viewBox="0 0 32 32" width="512" height="512"><g id="Ikon"><path d="M20,19.125v.75H12v-.75a3.98038,3.98038,0,0,1,1.44922-3.0697,3.916,3.916,0,0,0,5.10156,0A3.98057,3.98057,0,0,1,20,19.125ZM16,15a2,2,0,1,0-2-2A2.00229,2.00229,0,0,0,16,15Zm10-5V27a3.00328,3.00328,0,0,1-3,3H9a3.00328,3.00328,0,0,1-3-3V5A3.00328,3.00328,0,0,1,9,2h9V7a3.00328,3.00328,0,0,0,3,3ZM22,25a.99974.99974,0,0,0-1-1H11a1,1,0,0,0,0,2H21A.99974.99974,0,0,0,22,25Zm0-5.875a5.98107,5.98107,0,0,0-2.27753-4.68921A3.96246,3.96246,0,0,0,20,13a4,4,0,0,0-8,0,3.96246,3.96246,0,0,0,.27753,1.43579A5.98107,5.98107,0,0,0,10,19.125v.75a2.00229,2.00229,0,0,0,2,2h8a2.00229,2.00229,0,0,0,2-2ZM21,8h4.87012a2.96986,2.96986,0,0,0-.749-1.293L21.293,2.87891A2.97324,2.97324,0,0,0,20,2.13V7A1.001,1.001,0,0,0,21,8Z"/></g></svg>
