<?xml version="1.0" encoding="utf-8"?><svg xmlns="http://www.w3.org/2000/svg" width="32" height="32" viewbox="0 0 32 32"><path d="M16.8.4C10.3.4 4 4.7 4 11.6c0 4.4 2.5 6.9 4 6.9.6 0 1-1.7 1-2.2 0-.6-1.5-1.8-1.5-4.2 0-5 3.8-8.6 8.8-8.6 4.3 0 7.4 2.4 7.4 6.9 0 3.3-1.3 9.5-5.6 9.5-1.6 0-2.9-1.1-2.9-2.7 0-2.4 1.6-4.6 1.6-7.1 0-4.1-5.9-3.4-5.9 1.6 0 1 .1 2.2.6 3.2-.9 3.7-2.6 9.2-2.6 13.1 0 1.2.2 2.3.3 3.5.2.2.1.2.4.1 3.1-4.3 3-5.2 4.5-10.8.8 1.5 2.8 2.2 4.3 2.2C25 23 28 16.5 28 10.7 28 4.5 22.6.4 16.8.4z"/></svg>