<?xml version="1.0" encoding="UTF-8"?><svg xmlns="http://www.w3.org/2000/svg" viewBox="0 0 338.59 422"><path d="M335.66 112.52 226.07 2.93A9.642 9.642 0 0 0 219 0H40C17.91 0 0 17.91 0 40v342c0 22.09 17.91 40 40 40h258.59c22.09 0 40-17.91 40-40V119.59c0-2.65-1.06-5.19-2.93-7.07Zm-31.21-2.93H244c-8.28 0-15-6.72-15-15V34.14l75.45 75.45ZM298.59 402H40.03c-11.05 0-20-8.95-20-20V40c0-11.05 8.95-20 20-20h169v74.59c0 19.33 15.67 35 35 35h74.59V382c0 11.05-8.95 20-20 20h-.03Z"/><path d="M129.14 154c22.37 0 40.5-18.13 40.5-40.5S151.51 73 129.14 73s-40.5 18.13-40.5 40.5c.03 22.36 18.14 40.47 40.5 40.5Zm0-61c11.32 0 20.5 9.18 20.5 20.5s-9.18 20.5-20.5 20.5-20.5-9.18-20.5-20.5c.02-11.31 9.19-20.48 20.5-20.5ZM70.53 231.5c5.52 0 10-4.48 10-10v-6.1c.03-20.46 16.6-37.03 37.06-37.06h23.1c20.46.03 37.03 16.6 37.06 37.06v6.1c0 5.52 4.48 10 10 10s10-4.48 10-10v-6.1c-.04-31.5-25.56-57.02-57.06-57.06h-23.1c-31.5.04-57.02 25.56-57.06 57.06v6.1c0 5.52 4.48 10 10 10ZM64.96 304.67h121.35c5.52 0 10-4.48 10-10s-4.48-10-10-10H64.96c-5.52 0-10 4.48-10 10s4.48 10 10 10ZM254.96 337.33h-190c-5.52 0-10 4.48-10 10s4.48 10 10 10h190c5.52 0 10-4.48 10-10s-4.48-10-10-10Z"/></svg>