<?xml version="1.0" encoding="UTF-8"?><svg xmlns="http://www.w3.org/2000/svg" viewBox="0 0 489.96 467.24"><g data-name="22"><path d="m465.98 11.14-13-6.45c-20.39-10.12-44.42-3.32-53.58 15.15L370.6 77.9c-4.27 8.63-.5 19.29 8.53 24.24l-6.49 13.08c-9.34-4.27-20.14-.83-24.45 7.86l-9.39 18.93c-2.4 4.84-.46 10.76 4.45 13.2l8.04 3.99-22.88 46.07h-28.92v-53.78c0-3.45 1.9-6.79 5.09-8.94a74.047 74.047 0 0 0 32.7-61.48c0-27.25-14.84-52.25-38.75-65.26-3.94-2.14-8.6-2.04-12.48.27-3.86 2.3-6.26 6.5-6.26 10.98v38.02l-16.03 13.2c-.31.27-1.03.29-1.55-.14l-15.86-13.05V27.06c0-4.47-2.39-8.67-6.25-10.98-3.88-2.31-8.53-2.41-12.5-.27-23.89 13-38.74 38-38.74 65.25 0 24.68 12.23 47.66 32.7 61.47 3.19 2.15 5.09 5.5 5.09 8.94v53.78h-68.9l-31.79-88.78c-1.31-3.68-.94-7.39.67-10.43 1.94-3.75 6.66-5.35 10.53-3.6a9.83 9.83 0 0 0 7.4.32l17.16-6.12c9.31-3.31 13.91-13.58 10.61-22.68l-15.55-42.83c-3.12-9.15-13.18-14.02-22.56-10.84l-10.92 3.88c-7.13 2.42-12.91 7.89-16.36 15.53-.65 1.5-2.08 2.74-3.91 3.38-1.74.62-3.53.6-4.74-.04-7.77-4.11-16.09-4.91-23.52-2.27l-24.12 8.86c-15.8 5.82-28.82 15.4-37.65 27.7-17.54 24.5-13.54 48.69-9.59 60.95 1.72 5.31 6.44 9.12 12 9.69 5.52.61 10.73-2.08 13.21-6.48 2.64-4.08 5.57-6.59 9.57-8.18 4.8-1.93 10.79-1.68 16.44.75.38.16.78.3 1.21.42 3.81 1.6 8.41 4.5 10.21 9.47l21.93 61.32H48.73c-17.07 0-31.51 13.76-31.51 31.61 0 15.5 11.26 28.34 26.02 30.95v145.61c0 12.94 4.59 24.82 12.22 34.11H16.29c-5.44 0-9.85 4.41-9.85 9.85s4.41 9.85 9.85 9.85h457.37c5.44 0 9.85-4.41 9.85-9.85s-4.41-9.85-9.85-9.85h-39.18c7.63-9.28 12.22-21.17 12.22-34.11v-145.6c14.95-2.63 26.02-15.52 26.02-30.97 0-17.43-14.13-31.61-31.51-31.61h-46.4l9.77-19.64 8.05 3.99c4.82 2.39 10.76.46 13.2-4.45l9.39-18.93c4.16-8.39.86-19.1-8.53-24.24l6.49-13.09c9.49 4.34 20.22.68 24.45-7.86l28.77-57.98c9.18-18.51.02-41.81-20.41-51.96ZM62.29 115.84c-.28-.11-.57-.2-.87-.28-10.29-4.15-21.13-4.32-30.53-.52-4.08 1.61-7.71 3.79-10.98 6.66-.99-9.53.65-21.09 9.09-32.86 6.52-9.09 16.36-16.25 28.45-20.7l24.02-8.83c2.81-1 5.97.31 7.68 1.21 6.12 3.16 13.58 3.58 20.46 1.14 6.95-2.47 12.55-7.61 15.32-13.97.65-1.44 2.13-4 4.82-4.91l9.13-3.24 14.25 39.26-11.88 4.24c-12.5-3.5-26 2.1-32.09 13.89-2.45 4.65-3.7 9.73-3.7 15.1 0 3.74.65 7.47 1.95 11.08l29.16 81.44h-27.93l-24.07-67.28c-3.46-9.56-11.38-17.18-22.29-21.44Zm170.28 10.38a54.385 54.385 0 0 1-24.02-45.15c0-15.73 6.73-30.44 18.1-40.65v29.31c0 2.94 1.32 5.73 3.59 7.6l19.38 15.95c7.77 6.5 19.37 6.47 26.81.05l19.45-16a9.854 9.854 0 0 0 3.59-7.6V40.42c11.38 10.21 18.1 24.92 18.1 40.64 0 18.13-8.98 35-24.02 45.15-8.63 5.82-13.77 15.26-13.77 25.26v53.78h-33.44v-53.78c0-10-5.14-19.44-13.77-25.26Zm108.24 142.17h41.36v43.62c0 .96-.78 1.74-1.74 1.74h-37.88c-.96 0-1.74-.78-1.74-1.74v-43.62Zm-233.04 0h41.36v43.62c0 .96-.78 1.74-1.74 1.74h-37.88c-.96 0-1.74-.78-1.74-1.74v-43.62Zm-19.69 0v43.62c0 11.82 9.62 21.43 21.43 21.43h37.88c11.82 0 21.43-9.62 21.43-21.43v-43.62h152.29v43.62c0 11.82 9.62 21.43 21.43 21.43h37.88c11.82 0 21.43-9.62 21.43-21.43v-43.62h25.14v145.06c0 18.77-15.23 34.04-33.95 34.04H96.89c-18.72 0-33.95-15.27-33.95-34.04V268.39h25.14Zm364.94-31.51c0 6.84-5.63 11.82-11.82 11.82-686.76-.08-23.42-.02-392.47 0-6.51 0-11.82-5.3-11.82-11.82 0-6.88 5.54-11.91 11.82-11.91H441.2c6.51 0 11.82 5.35 11.82 11.91Zm-66.09-59.99-13.77 27.67h-22.42l18.19-36.62c.99.49 19.15 9.52 18.01 8.95Zm81.82-122.55-27.98 56.39c-9.37-4.28-20.15-.79-24.45 7.86l-8.06 16.25c-4.19 8.43-.82 19.13 8.53 24.24l-4.23 8.51c-1.03-.51-52.77-26.18-51.74-25.66l4.23-8.53c9.29 4.24 20.15.81 24.45-7.86l8.06-16.26c2.21-4.45 2.36-9.71.41-14.44-1.69-4.11-4.81-7.54-8.93-9.8l28.01-56.47c4.34-8.74 16.54-11.54 27.19-6.26l13 6.44c10.71 5.32 15.87 16.78 11.51 25.57Z"/><path d="M105.61 421.73c5.44 0 9.85-4.41 9.85-9.85v-47.87c0-5.44-4.41-9.85-9.85-9.85s-9.85 4.41-9.85 9.85v47.87c0 5.44 4.41 9.85 9.85 9.85ZM161.35 421.73c5.44 0 9.85-4.41 9.85-9.85v-47.87c0-5.44-4.41-9.85-9.85-9.85s-9.85 4.41-9.85 9.85v47.87c0 5.44 4.41 9.85 9.85 9.85ZM217.1 421.73c5.44 0 9.85-4.41 9.85-9.85v-96.3c0-5.44-4.41-9.85-9.85-9.85s-9.85 4.41-9.85 9.85v96.3c0 5.44 4.41 9.85 9.85 9.85ZM272.85 421.73c5.44 0 9.85-4.41 9.85-9.85v-96.3c0-5.44-4.41-9.85-9.85-9.85s-9.85 4.41-9.85 9.85v96.3c0 5.44 4.41 9.85 9.85 9.85ZM328.59 421.73c5.44 0 9.85-4.41 9.85-9.85v-47.87c0-5.44-4.41-9.85-9.85-9.85s-9.85 4.41-9.85 9.85v47.87c0 5.44 4.41 9.85 9.85 9.85ZM384.34 421.73c5.44 0 9.85-4.41 9.85-9.85v-47.87c0-5.44-4.41-9.85-9.85-9.85s-9.85 4.41-9.85 9.85v47.87c0 5.44 4.41 9.85 9.85 9.85Z"/></g></svg>