<?xml version="1.0" encoding="UTF-8"?><svg xmlns="http://www.w3.org/2000/svg" viewBox="0 0 512 510"><path d="M467 0H45C20.19 0 0 20.19 0 45v420c0 24.81 20.19 45 45 45h422c24.81 0 45-20.19 45-45V45c0-24.81-20.19-45-45-45ZM45 30h422c8.27 0 15 6.73 15 15v75H30V45c0-8.27 6.73-15 15-15Zm422 450H45c-8.27 0-15-6.73-15-15V150h452v315c0 8.27-6.73 15-15 15Z"/><path d="M306.91 196.21c-7.61-3.26-16.43.26-19.7 7.88l-90 210c-3.26 7.61.26 16.43 7.88 19.7 7.62 3.26 16.43-.27 19.7-7.88l90-210c3.26-7.62-.26-16.43-7.88-19.7ZM177.71 245.63c-5.18-6.47-14.62-7.52-21.08-2.34l-75 60c-7.5 6-7.5 17.42 0 23.43l75 60c6.47 5.18 15.91 4.13 21.08-2.34 5.18-6.47 4.13-15.91-2.34-21.08l-60.36-48.29 60.36-48.29c6.47-5.17 7.52-14.61 2.34-21.08ZM430.37 303.29l-75-60c-6.47-5.18-15.91-4.13-21.08 2.34-5.17 6.47-4.13 15.91 2.34 21.08L396.99 315l-60.36 48.29c-6.47 5.17-7.52 14.61-2.34 21.08 5.18 6.48 14.62 7.51 21.08 2.34l75-60c7.5-6 7.5-17.42 0-23.42Z"/><circle cx="76" cy="75" r="15"/><circle cx="136" cy="75" r="15"/><circle cx="196" cy="75" r="15"/><path d="M346 90h90c8.28 0 15-6.72 15-15s-6.72-15-15-15h-90c-8.28 0-15 6.72-15 15s6.72 15 15 15Z"/></svg>