<?xml version="1.0" encoding="UTF-8"?><svg xmlns="http://www.w3.org/2000/svg" viewBox="0 0 512.06 512.13"><path d="M464.62 107.66a260.055 260.055 0 0 0-21.6-26.38l-23.36 21.89a224.95 224.95 0 0 1 18.91 23.09l26.05-18.59ZM418.14 58c-8.79-7.2-18.03-13.82-27.68-19.81l-16.83 27.2c8.48 5.24 16.59 11.03 24.3 17.34l20.21-24.74Z"/><path d="m482.53 136.67-28.29 14.98c57.72 109.42 15.81 244.92-93.61 302.64S115.71 470.1 57.99 360.68 42.18 115.76 151.6 58.03a223.987 223.987 0 0 1 104.46-25.88c31.42-.09 62.51 6.49 91.2 19.31l13.06-29.22c-129.13-57.58-280.48.42-338.06 129.55-57.58 129.13.42 280.49 129.55 338.06 129.13 57.58 280.49-.42 338.07-129.55a255.896 255.896 0 0 0 22.19-104.16 256.747 256.747 0 0 0-29.54-119.49Z"/><path d="M401.52 220.11c.01 7.08-1.63 14.06-4.8 20.38l-65.46 119.23-51.97-151.57h24.77v-32h-96v32h37.41l14.86 43.34-58.83 110.88-52.86-154.22h27.42v-32h-96v32h34.75l65.82 192h37.02l56.86-107.2 36.8 107.2h34.22l76.8-139.52 2.91-5.82c19.21-38.37 3.69-85.05-34.68-104.26a77.646 77.646 0 0 0-15.98-5.91l-7.76 31.04c20.39 5.09 34.69 23.42 34.67 44.43Z"/></svg>