<?xml version="1.0" encoding="utf-8"?><svg xmlns="http://www.w3.org/2000/svg" width="32" height="32" viewbox="0 0 32 32"><path d="M31.133 8.289a3.975 3.975 0 0 0-2.793-2.811C25.877 4.814 16 4.814 16 4.814s-9.876 0-12.339.664A3.965 3.965 0 0 0 .869 8.289c-.66 2.479-.66 7.652-.66 7.652s0 5.171.66 7.649c.363 1.369 1.433 2.4 2.792 2.766C6.124 27.02 16 27.02 16 27.02s9.876 0 12.339-.664c1.358-.365 2.429-1.396 2.793-2.766.659-2.479.659-7.649.659-7.649s.001-5.173-.658-7.652zM12.771 20.637v-9.392l8.254 4.696-8.254 4.696z"/></svg>